<?xml version="1.0" encoding="UTF-8"?>
<svg id="Layer_1" data-name="Layer 1" xmlns="http://www.w3.org/2000/svg" viewBox="0 0 1000 1000">
  <defs>
    <style>
      .cls-1 {
        fill: #fff;
      }

      .cls-2 {
        fill: #bf2525;
      }

      .cls-3 {
        fill: #1452b5;
      }

      .cls-4 {
        fill-rule: evenodd;
      }
    </style>
  </defs>
  <g>
    <path d="m179.1,804.55c-4.08-2.81-7.47-6.16-10.16-10.05s-4.48-8.11-5.37-12.66c-.89-4.55-.8-9.3.28-14.26,1.08-4.96,3.32-9.91,6.72-14.85,3.24-4.71,6.98-8.46,11.21-11.25,4.23-2.79,8.67-4.61,13.31-5.45,4.64-.85,9.38-.72,14.22.38,4.84,1.1,9.5,3.19,13.99,6.28,2.71,1.87,5.1,3.66,7.16,5.37,2.06,1.71,3.88,3.35,5.47,4.9s2.99,3.03,4.21,4.44c1.22,1.41,2.33,2.7,3.32,3.89l-10.67,15.51-4.03-2.77,2.68-9.77c.12-.55.1-1.08-.07-1.6-.17-.52-.37-1-.6-1.46-.61-1.13-1.39-2.3-2.33-3.5-.95-1.2-1.96-2.36-3.06-3.49-1.09-1.13-2.23-2.21-3.4-3.22-1.17-1.02-2.32-1.91-3.43-2.67-2.2-1.51-4.63-2.45-7.31-2.82-2.67-.36-5.46-.08-8.36.87-2.9.95-5.84,2.61-8.82,4.98-2.98,2.37-5.84,5.55-8.59,9.55-2.65,3.86-4.73,7.67-6.24,11.46-1.51,3.78-2.36,7.34-2.55,10.68-.19,3.34.31,6.39,1.5,9.14,1.19,2.76,3.16,5.08,5.9,6.97,1.17.81,2.35,1.47,3.55,2s2.33.95,3.41,1.28c1.08.32,2.07.56,2.95.71.89.15,1.61.25,2.17.29l8.84-12.85c.43-.63.61-1.24.54-1.84-.07-.6-.33-1.19-.76-1.79l-5.59-6.75,2.06-3,28.96,19.93-2.06,3-6.8-1.77c-.68-.18-1.33-.2-1.94-.07-.61.13-1.14.5-1.57,1.13l-4.57,6.64c-1.69,2.46-3.12,4.55-4.3,6.29-1.18,1.74-2.1,3.19-2.78,4.37-1.94-.49-4.03-1.12-6.3-1.9s-4.58-1.68-6.95-2.7c-2.37-1.02-4.74-2.17-7.1-3.44-2.37-1.27-4.62-2.64-6.76-4.12Z"/>
    <path d="m223.51,826.88l7.49.97c.65.08,1.28,0,1.88-.26.6-.25,1.07-.72,1.39-1.41l23.62-49.63c.33-.69.4-1.34.22-1.97-.18-.62-.52-1.15-1.01-1.57l-5.47-5.2,1.59-3.33,54.51,25.94-8.4,17.66-4.46-2.12,1.25-11.33c.05-.59,0-1.11-.12-1.56-.13-.45-.46-.8-1-1.05l-22.07-10.5-10.57,22.21,13.29,6.32c.62.3,1.14.38,1.53.24.39-.14.8-.41,1.23-.83l6.48-6.24,3.85,1.83-11.64,24.46-3.85-1.83.71-8.88c.04-.56,0-1.07-.11-1.52-.11-.46-.48-.83-1.1-1.13l-13.29-6.32-11.87,24.93,25.92,12.33c.53.25,1.03.3,1.49.13s.9-.48,1.31-.93l8.45-9.4,4.41,2.1-9.01,18.92-58.22-27.71,1.59-3.33Z"/>
    <path d="m328.92,823.18l-2.57-8.64-.3-.09-13.52,45.08c-.22.73-.2,1.37.05,1.92.25.55.67,1.03,1.27,1.47l6.05,4.64-1.06,3.54-25.8-7.74,1.06-3.54,7.65-.53c.67-.05,1.28-.24,1.83-.57.55-.32.93-.83,1.14-1.53l15.66-52.2c.22-.73.18-1.39-.11-1.99-.29-.6-.7-1.06-1.21-1.4l-6.56-4.57,1.06-3.54,23.36,7.01,17.01,52.06,2.4,7.94.3.09,12.26-40.89c.22-.73.2-1.35-.06-1.87-.26-.51-.7-1.01-1.32-1.48l-6.05-4.64,1.06-3.54,25.85,7.75-1.06,3.54-7.65.53c-.67.05-1.28.23-1.84.53-.56.3-.95.8-1.16,1.5l-14.89,49.66-5.02,11.31-9.07-2.72-18.76-57.1Z"/>
    <path d="m394.31,886.27l8.27-1.21c.75-.07,1.35-.31,1.82-.73.46-.42.75-1.01.86-1.77l8.25-56.45-15.08-2.2c-.65-.1-1.16,0-1.54.27s-.69.7-.95,1.25l-5.35,10.73-4.78-.7,2.91-19.91,67.2,9.82-2.91,19.91-4.79-.7-2.06-11.81c-.09-.57-.27-1.06-.55-1.45-.28-.39-.71-.63-1.29-.72l-15.28-2.23-8.25,56.45c-.11.76.03,1.41.42,1.95.39.55.88.95,1.48,1.21l7.58,3.53-.53,3.6-35.97-5.26.53-3.6Z"/>
    <path d="m456.35,894.33l7.22-2.19c.66-.2,1.21-.53,1.63-1.01.43-.48.65-1.09.66-1.86l1.12-54.95c.02-.76-.19-1.39-.61-1.89s-.95-.83-1.56-1.02l-7.13-2.49.08-3.69,34.78.71-.07,3.69-7.38,2.19c-.66.2-1.23.53-1.68,1.01-.46.48-.7,1.08-.71,1.81l-1.16,56.98,24.9.51c.31,0,.59-.07.84-.24.25-.17.47-.37.66-.61.2-.24.36-.5.48-.8.13-.29.23-.58.3-.85l4.3-14.27,4.84.1-.49,23.81-61.09-1.24.08-3.69Z"/>
    <path d="m526.84,895.26l6.9-3.06c.6-.27,1.09-.67,1.47-1.2.38-.53.53-1.17.46-1.93l-5.62-54.68c-.08-.76-.36-1.36-.84-1.8-.48-.44-1.04-.71-1.68-.82l-7.38-1.59-.38-3.67,60.06-6.17,2,19.45-4.92.5-4.82-10.32c-.26-.53-.57-.95-.91-1.27-.34-.31-.81-.44-1.4-.38l-24.31,2.5,2.51,24.47,14.64-1.5c.69-.07,1.16-.27,1.43-.59.26-.32.47-.77.62-1.34l2.29-8.7,4.24-.44,2.77,26.95-4.24.44-4.01-7.95c-.26-.5-.55-.91-.88-1.24-.33-.33-.84-.46-1.53-.39l-14.64,1.5,2.82,27.47,28.55-2.93c.59-.06,1.03-.28,1.34-.66s.52-.87.63-1.48l2.33-12.42,4.86-.5,2.14,20.85-64.15,6.59-.38-3.67Z"/>
    <path d="m604.87,887.39l6.22-4.48c.54-.4.96-.88,1.25-1.44.3-.57.35-1.2.16-1.9l-14.23-52.77c-.2-.74-.58-1.28-1.14-1.63-.56-.35-1.15-.53-1.76-.55l-7.54-.39-.96-3.56,28.22-7.61,24.91,36.05,5.66,8.81.35-.09,4.07-54.2,27.91-7.53.96,3.56-6.27,4.12c-.58.37-1.03.85-1.34,1.44-.31.59-.37,1.23-.18,1.93l14.32,53.07c.21.77.59,1.32,1.15,1.66.56.33,1.18.52,1.87.55l7.49.4.96,3.56-33.34,8.99-.96-3.56,6.27-4.12c.57-.41,1.01-.89,1.3-1.46.3-.57.35-1.21.15-1.95l-13.68-50.71-.35.1-.52,9.46-3.4,43.09-2.01,12.72-6.78,1.83-31.69-45.8-5.23-8.01-.35.09,13.62,50.51c.21.77.58,1.31,1.11,1.61.53.31,1.15.49,1.84.55l7.53.77.96,3.56-25.61,6.91-.96-3.56Z"/>
    <path d="m708.53,857.01l5.53-5.13c.48-.45.81-.99,1-1.61s.12-1.28-.2-1.97l-23.06-49.9c-.32-.69-.78-1.17-1.37-1.43-.6-.26-1.21-.34-1.85-.23l-7.5.89-1.55-3.35,54.81-25.32,8.2,17.75-4.48,2.07-7.92-8.2c-.42-.41-.85-.72-1.28-.9-.43-.18-.91-.15-1.44.1l-22.19,10.25,10.32,22.33,13.36-6.17c.63-.29,1.02-.63,1.16-1.02.14-.39.19-.88.15-1.47l-.65-8.98,3.87-1.79,11.36,24.59-3.87,1.79-6.37-6.22c-.41-.39-.82-.68-1.24-.89s-.95-.16-1.57.13l-13.36,6.17,11.58,25.07,26.06-12.04c.53-.25.89-.6,1.06-1.06.17-.46.21-.99.12-1.6l-1.82-12.5,4.44-2.05,8.79,19.02-58.54,27.05-1.55-3.35Z"/>
    <path d="m773.09,773.5l-8.32-3.48-.26.18,26.38,38.97c.43.63.93,1.02,1.51,1.17s1.23.13,1.94-.06l7.42-1.75,2.07,3.06-22.31,15.1-2.07-3.06,4.43-6.26c.38-.55.62-1.14.72-1.77.1-.63-.06-1.25-.47-1.85l-30.54-45.13c-.43-.63-.96-1.02-1.61-1.17-.65-.15-1.26-.13-1.85.06l-7.69,2.19-2.07-3.06,20.2-13.67,51.1,19.73,7.67,3.16.26-.18-23.93-35.36c-.43-.63-.92-1.01-1.49-1.13-.56-.12-1.22-.09-1.98.08l-7.41,1.75-2.07-3.06,22.35-15.13,2.07,3.06-4.43,6.26c-.38.55-.63,1.14-.75,1.77-.12.63.02,1.24.43,1.84l29.06,42.94,5.59,11.04-7.84,5.3-56.1-21.56Z"/>
  </g>
  <g>
    <path d="m499.86,659.7l-8.42-9.38c-22.77-25.35-50.28-43.33-76.9-60.71-51.3-33.51-99.74-65.16-92.19-139.74,12-118.47-16.3-164.34-16.59-164.79l-8.29-12.73,14.54-4.36c2.43-.71,25.29-7.34,86.46-23.1,66.7-17.19,98.85-23.73,99.16-23.79l2.23-.45,2.24.45c.3.06,32.46,6.6,99.16,23.79,61.17,15.76,84.03,22.39,86.44,23.1l14.84,4.37-8.62,12.82c-.27.42-28.52,46.35-16.53,164.7,7.55,74.58-40.89,106.23-92.18,139.73-26.62,17.39-54.14,35.37-76.91,60.72l-8.42,9.38Zm-196.47-385.19l5.54,8.51c.3.46,29.37,46.78,17.18,167.22-7.32,72.29,40.19,103.33,90.49,136.19,26.82,17.52,54.55,35.64,77.65,61.36l5.62,6.25,5.62-6.25c23.1-25.72,50.83-43.83,77.64-61.35,50.31-32.87,97.83-63.91,90.5-136.2-12.19-120.38,16.84-166.71,17.14-167.16l5.76-8.57-9.88-2.91c-2.41-.7-25.21-7.32-86.33-23.06-66.55-17.15-98.65-23.69-98.96-23.75l-1.49-.3-1.49.3c-.31.06-32.41,6.59-98.96,23.75-61.12,15.75-83.92,22.36-86.32,23.06l-9.71,2.91Z"/>
    <path d="m499.86,232.19s31.09,6.27,98.57,23.66c63.74,16.43,86.08,23,86.08,23,0,0-31.14,46.31-18.4,172.16,10.51,103.82-97.91,115.65-166.25,191.75-68.34-76.1-176.76-87.92-166.25-191.75,12.74-125.85-18.4-172.16-18.4-172.16,0,0,22.34-6.57,86.08-23,67.48-17.39,98.57-23.66,98.57-23.66Z"/>
    <path class="cls-1" d="m533.42,484.92v-123.93c2.74-1.56,4.52-4.27,4.52-7.44s-1.79-5.89-4.53-7.44c-.47-16.81-15.58-30.46-33.77-30.46s-33.41,13.74-33.78,30.62v.3c-2.33,1.6-3.8,4.11-3.8,6.98s1.48,5.38,3.8,6.98v124.84c-2.32,1.6-3.8,4.11-3.8,6.98,0,2.5,1.12,4.73,2.94,6.32l.02.96c.37,16.89,15.53,30.62,33.78,30.62s33.04-13.41,33.75-30.02c3.22-1.44,5.39-4.39,5.39-7.88,0-3.16-1.78-5.88-4.52-7.44Z"/>
    <g>
      <g>
        <polygon class="cls-2" points="528.16 468.16 528.16 443.12 475.85 462.25 471.11 469.59 471.11 488.67 497.64 488.67 528.16 468.16"/>
        <polygon class="cls-3" points="471.11 378.37 471.11 403.42 523.43 384.29 528.16 376.95 528.16 357.12 501.63 357.15 471.11 378.37"/>
        <polygon class="cls-1" points="471.11 421.52 471.11 451.15 523.43 432.03 528.16 424.69 528.16 395.36 501.63 405.6 471.11 421.52"/>
        <path class="cls-3" d="m471.11,469.59c19.64-13.23,43.01-11.71,57.05-26.47v-24.35c-14.04,14.76-37.41,13.23-57.05,26.47v24.35Z"/>
        <path class="cls-2" d="m471.11,425.74c19.64-13.23,43.01-11.71,57.05-26.47v-23.67c-14.04,14.76-37.41,13.23-57.05,26.47v23.67Z"/>
        <path class="cls-1" d="m471.11,357.15v21.62c16.5-11.12,35.63-12.93,49.65-21.62h-49.65Z"/>
        <path class="cls-1" d="m528.16,488.67v-20.51c-16.5,11.12-35.63,11.82-49.65,20.51h49.65Z"/>
      </g>
      <path d="m528.01,357.12h-56.03c-2.58,0-4.67-1.6-4.67-3.57h0c0-1.97,2.09-3.57,4.67-3.57h56.03c2.58,0,4.67,1.6,4.67,3.57h0c0,1.97-2.09,3.57-4.67,3.57Z"/>
      <path d="m471.99,488.79h56.03c2.58,0,4.67,1.6,4.67,3.57h0c0,1.97-2.09,3.57-4.67,3.57h-56.03c-2.58,0-4.67-1.6-4.67-3.57h0c0-1.97,2.09-3.57,4.67-3.57Z"/>
      <path d="m499.64,320.92c-15.57,0-28.21,11.36-28.53,25.48h57.05c-.31-14.12-12.96-25.48-28.52-25.48Zm-5.6,5.22c-7.8,1.97-14.14,7.95-15.12,14.55-.13.9-1.82.91-1.69,0,1.13-7.56,7.87-13.78,16.36-15.92,1.04-.26,1.49,1.12.45,1.38Z"/>
      <path d="m498.8,525c15.57,0,28.21-11.36,28.52-25.48h-57.05c.31,14.12,12.96,25.48,28.52,25.48Zm5.6-5.22c7.8-1.97,14.14-7.95,15.12-14.55.13-.9,1.82-.91,1.69,0-1.13,7.57-7.87,13.78-16.36,15.92-1.04.26-1.49-1.12-.45-1.38Z"/>
      <rect x="471.11" y="357.12" width="3.62" height="131.56"/>
      <rect x="524.55" y="357.12" width="3.62" height="131.56"/>
    </g>
  </g>
  <g>
    <path class="cls-4" d="m449.47,711.77c.06-1.47.17-2.93.27-4.39,14.67-67.18-25.99-50.67-50.72-97.63-26.13,56.51,14.28,60.97,44.03,100.61-4.15-1.05-9.41-.96-13.44-1.12-19.31-.73-36.91-4.7-55.28-9.95.23-.43.42-.86.64-1.3,35.45-54.62-9.83-58.27-21.7-107.55-41.04,47.23-4.38,59.13,13.85,106.57-21.65-8.49-41.99-18.78-61.82-30.91.44-.61.89-1.22,1.33-1.83,47.89-42.16,1.37-55.74.02-104.22-48.4,33.61-15.13,56.39-7.99,101.74-18.75-13.7-36.24-28.41-52.67-44.82.07-.11-.06.1.06-.08.12-.19.7-.69.95-.87,53.31-26.23,17.36-48.95,25.85-93.3-49.66,18.94-29.11,46.51-32.66,88.11-13.06-15.66-24.01-31.04-32.81-49.45.09-.04.11-.01.2-.11.09-.1.36-.23.5-.3,52.58-18.47,25.24-41.69,41.33-81.47-48.66,9-34.7,37.86-45.33,75.19-7.3-17.78-13.47-35.75-18.39-54.34.67.13,2.6.09,3.02-.17s.02-.03.29-.18c48.5-9.34,29.6-33.7,48.04-68.25-47.18.98-37.16,29.63-52.75,63.04-2.13-10.52-3.65-20.88-4.97-31.6-1.15-9.28-1.76-18.83-1.97-28.23.38.09.8.2,1.17.28.04,0-.1.03-.09.04,50.99,4.16,34.19-24.66,60.87-53.56-43.84-11.42-41.04,18.31-62,46.84.39-22.03,4.49-41.6,9.78-62.87.37.26.74.51,1.12.75-.15.01-.31.03-.46.04,44.05,19.22,32.5-14.16,60.54-33.64-40.34-19.81-34.93,3.47-59.78,26.38,6.91-21.88,17.33-42.24,26.7-63.15,44.83,23.2,31.76-6.27,65.97-19.06-32.14-25.89-34.74-6.11-62.7,11.67,9.2-18.8,20.87-35.69,32.76-52.86.47.62.94,1.28,1.55,1.78-.42-.11-.83-.22-1.25-.33,38.63,27.52,30.74-1.3,65.3-7.7-26.76-30.05-32.78-10.56-62.56,1.87,11.34-15.21,23.76-29.22,37.2-42.6,1.8-1.79,3.68-3.42,5.5-5.18.74,1.16,1.46,2.42,2.46,3.38-.49-.22-.99-.44-1.48-.66,32.26,29.89,27.76,4.73,61.6,5.68-20.29-33.1-29.63-15.39-60.33-10.55,11.93-11.24,24.14-25.76,41.22-28.02,37.67-10.19,20.78-26.06,37.07-52.76-36.61,2.54-29.42,19.93-39.43,47.91-14.88,7.7-27.39,17.68-39.93,28.72.03-.23.07-.47.1-.7,18.32-28.04,36.08-31.69,17.7-67.19-14.71,34.14-40.58,26.56-25.27,71.5.07-.8.14-1.59.15-2.39.54,1.38,1.03,2.77,1.5,4.18-.86.8-1.78,1.6-2.6,2.42-11.85,11.78-23.2,23.93-33.57,37.04.04-.43.08-.86.12-1.29,15.46-32.16,37.11-43.55,8.21-76.15-7.65,38.19-39.08,40.43-15.98,83.56-.09-.81-.18-1.62-.26-2.43.66,1.48,1.31,2.96,1.97,4.43-11.78,16.71-23.71,33.19-33.34,51.26-.02-.11-.03-.22-.05-.32,11.34-37.6,36.72-52.3-2.69-81.99-.65,40.4-34.88,49.75-3.94,90.33-.14-.5-.27-1-.4-1.49.84,1.09,1.69,2.18,2.53,3.26-8.43,18.77-18.24,37.18-24.85,56.69,7.33-40.09,29.02-59.68-18.43-80.1,9.81,45.05-20.02,46.2,12.6,93.65-.09-.38-.18-.77-.28-1.15.5.72,1,1.43,1.56,2.11-6.36,22.42-10.56,43.12-11,66.5-8.24-41.09,6.77-61.45-44.53-75.66,18.53,39.1-8.75,56.71,39.85,80.92-.17-.2-.34-.4-.51-.6,1.78,1.02,3.56,2.03,5.33,3.06.34,9.07.91,18.1,2.04,27.09,1.14,9,2.42,17.9,3.97,26.82-15.71-38.21-8.17-63.78-59.76-62.97,28.12,34.65,1.55,61.29,57.9,71.82-.11-.08-.23-.16-.34-.24,1.49.4,2.98.8,4.47,1.21,4.63,17.64,10.35,34.77,16.97,51.77-25.21-34.09-24.06-63.67-75.49-46.53,36.22,27.29,17.41,64.3,75.96,56.35,0,0-.04,0-.03-.01.71-1.05,2.72-.63,3.81-.5,8.22,17.78,17.75,32.65,30.13,47.87-38.86-26.35-48.67-61.41-96.05-26.21,47.98,18.52,35.18,62.56,99.41,36.12,1.43-.47,2.87-.93,4.31-1.38,15.17,15.57,31.24,29.75,48.52,42.94-48.89-19.02-64.65-51.21-103.96.18,54.83,3.47,56.41,57.72,112.56,9.9-.03,0-.06.01-.09.02.99-.74,1.98-1.49,2.97-2.24,19.23,12.15,38.99,22.55,59.94,31.39-54.72-3.1-79.45-35.24-103.16,30.76,54.66-12.27,71.33,42.43,111.31-22.88-.03.02-.06.04-.1.06,1.08-1.39,2.16-2.78,3.24-4.16,22.33,6.49,44,10.55,67.31,10.52-52.51,21.87-89.79-9.52-91.38,67.91,46.92-33.89,85.37,21.8,100.31-61.07.31-1.66.61-3.32.86-4.99,41.91,16.3,70.05,22.22,101.12,58.18,4.43-1.6,6.14-4.85,6.59-9.39-32.35-36.66-60.92-42.26-105.91-53.36ZM300.43,187.46c-.12-.05-.62-.24-.66-.26-.02-.01.6.22.66.26Zm-84.97,108.07c.12.05.44.39.59.5-.19-.02-.66-.02-.78-.07-.07-.03.12-.46.19-.43Zm-39.56,37.86c-.06.57-.12,1.15-.17,1.72-.03-.57-.07-1.18.17-1.72Zm9.12,162.41c-.11.22-.24.44-.36.66.02-.11-.13-.24-.07-.35s.33-.21.43-.31Z"/>
    <path class="cls-4" d="m550.53,711.77c-.06-1.47-.17-2.93-.27-4.39-14.67-67.18,25.99-50.67,50.72-97.63,26.13,56.51-14.28,60.97-44.03,100.61,4.15-1.05,9.41-.96,13.44-1.12,19.31-.73,36.91-4.7,55.28-9.95-.23-.43-.42-.86-.64-1.3-35.45-54.62,9.83-58.27,21.7-107.55,41.04,47.23,4.38,59.13-13.85,106.57,21.65-8.49,41.99-18.78,61.82-30.91-.44-.61-.89-1.22-1.33-1.83-47.89-42.16-1.37-55.74-.02-104.22,48.4,33.61,15.13,56.39,7.99,101.74,18.75-13.7,36.24-28.41,52.67-44.82-.07-.11.06.1-.06-.08-.12-.19-.7-.69-.95-.87-53.31-26.23-17.36-48.95-25.85-93.3,49.66,18.94,29.11,46.51,32.66,88.11,13.06-15.66,24.01-31.04,32.81-49.45-.09-.04-.11-.01-.2-.11-.09-.1-.36-.23-.5-.3-52.58-18.47-25.24-41.69-41.33-81.47,48.66,9,34.7,37.86,45.33,75.19,7.3-17.78,13.47-35.75,18.39-54.34-.67.13-2.6.09-3.02-.17s-.02-.03-.29-.18c-48.5-9.34-29.6-33.7-48.04-68.25,47.18.98,37.16,29.63,52.75,63.04,2.13-10.52,3.65-20.88,4.97-31.6,1.15-9.28,1.76-18.83,1.97-28.23-.38.09-.8.2-1.17.28-.04,0,.1.03.09.04-50.99,4.16-34.19-24.66-60.87-53.56,43.84-11.42,41.04,18.31,62,46.84-.39-22.03-4.49-41.6-9.78-62.87-.37.26-.74.51-1.12.75.15.01.31.03.46.04-44.05,19.22-32.5-14.16-60.54-33.64,40.34-19.81,34.93,3.47,59.78,26.38-6.91-21.88-17.33-42.24-26.7-63.15-44.83,23.2-31.76-6.27-65.97-19.06,32.14-25.89,34.74-6.11,62.7,11.67-9.2-18.8-20.87-35.69-32.76-52.86-.47.62-.94,1.28-1.55,1.78.42-.11.83-.22,1.25-.33-38.63,27.52-30.74-1.3-65.3-7.7,26.76-30.05,32.78-10.56,62.56,1.87-11.34-15.21-23.76-29.22-37.2-42.6-1.8-1.79-3.68-3.42-5.5-5.18-.74,1.16-1.46,2.42-2.46,3.38.49-.22.99-.44,1.48-.66-32.26,29.89-27.76,4.73-61.6,5.68,20.29-33.1,29.63-15.39,60.33-10.55-11.93-11.24-24.14-25.76-41.22-28.02-37.67-10.19-20.78-26.06-37.07-52.76,36.61,2.54,29.42,19.93,39.43,47.91,14.88,7.7,27.39,17.68,39.93,28.72-.03-.23-.07-.47-.1-.7-18.32-28.04-36.08-31.69-17.7-67.19,14.71,34.14,40.58,26.56,25.27,71.5-.07-.8-.14-1.59-.15-2.39-.54,1.38-1.03,2.77-1.5,4.18.86.8,1.78,1.6,2.6,2.42,11.85,11.78,23.2,23.93,33.57,37.04-.04-.43-.08-.86-.12-1.29-15.46-32.16-37.11-43.55-8.21-76.15,7.65,38.19,39.08,40.43,15.98,83.56.09-.81.18-1.62.26-2.43-.66,1.48-1.31,2.96-1.97,4.43,11.78,16.71,23.71,33.19,33.34,51.26.02-.11.03-.22.05-.32-11.34-37.6-36.72-52.3,2.69-81.99.65,40.4,34.88,49.75,3.94,90.33.14-.5.27-1,.4-1.49-.84,1.09-1.69,2.18-2.53,3.26,8.43,18.77,18.24,37.18,24.85,56.69-7.33-40.09-29.02-59.68,18.43-80.1-9.81,45.05,20.02,46.2-12.6,93.65.09-.38.18-.77.28-1.15-.5.72-1,1.43-1.56,2.11,6.36,22.42,10.56,43.12,11,66.5,8.24-41.09-6.77-61.45,44.53-75.66-18.53,39.1,8.75,56.71-39.85,80.92.17-.2.34-.4.51-.6-1.78,1.02-3.56,2.03-5.33,3.06-.34,9.07-.91,18.1-2.04,27.09-1.14,9-2.42,17.9-3.97,26.82,15.71-38.21,8.17-63.78,59.76-62.97-28.12,34.65-1.55,61.29-57.9,71.82.11-.08.23-.16.34-.24-1.49.4-2.98.8-4.47,1.21-4.63,17.64-10.35,34.77-16.97,51.77,25.21-34.09,24.06-63.67,75.49-46.53-36.22,27.29-17.41,64.3-75.96,56.35,0,0,.04,0,.03-.01-.71-1.05-2.72-.63-3.81-.5-8.22,17.78-17.75,32.65-30.13,47.87,38.86-26.35,48.67-61.41,96.05-26.21-47.98,18.52-35.18,62.56-99.41,36.12-1.43-.47-2.87-.93-4.31-1.38-15.17,15.57-31.24,29.75-48.52,42.94,48.89-19.02,64.65-51.21,103.96.18-54.83,3.47-56.41,57.72-112.56,9.9.03,0,.06.01.09.02-.99-.74-1.98-1.49-2.97-2.24-19.23,12.15-38.99,22.55-59.94,31.39,54.72-3.1,79.45-35.24,103.16,30.76-54.66-12.27-71.33,42.43-111.31-22.88.03.02.06.04.1.06-1.08-1.39-2.16-2.78-3.24-4.16-22.33,6.49-44,10.55-67.31,10.52,52.51,21.87,89.79-9.52,91.38,67.91-46.92-33.89-85.37,21.8-100.31-61.07-.31-1.66-.61-3.32-.86-4.99-41.91,16.3-70.05,22.22-101.12,58.18-4.43-1.6-6.14-4.85-6.59-9.39,32.35-36.66,60.92-42.26,105.91-53.36Zm149.03-524.31c.12-.05.62-.24.66-.26.02-.01-.6.22-.66.26Zm84.97,108.07c-.12.05-.44.39-.59.5.19-.02.66-.02.78-.07.07-.03-.12-.46-.19-.43Zm39.56,37.86c.06.57.12,1.15.17,1.72.03-.57.07-1.18-.17-1.72Zm-9.12,162.41c.11.22.24.44.36.66-.02-.11.13-.24.07-.35s-.33-.21-.43-.31Z"/>
  </g>
</svg>